<svg width="442" height="327" viewBox="0 0 442 327" fill="none" xmlns="http://www.w3.org/2000/svg">
<path d="M7.39648 293.817C40.1418 46.3091 403.518 46.5246 435.688 294.464C439.49 296.967 442 301.272 442 306.165C442 313.897 435.732 320.165 428 320.165C420.268 320.165 414 313.897 414 306.165C414 301.18 416.605 296.805 420.528 294.324C388.754 66.1471 53.5998 66.3562 22.3828 294.952C25.7928 297.506 28 301.577 28 306.165C28 313.897 21.732 320.165 14 320.165C6.26802 320.165 8.24702e-06 313.897 0 306.165C0 300.821 2.99425 296.177 7.39648 293.817Z" fill="url(#paint0_linear_3066_10234)"/>
<path d="M289.845 8.10352C294.115 6.40495 299.008 8.42043 300.812 12.7061L308.138 30.1025C309.536 33.4238 308.688 37.2661 306.021 39.6904L303.485 41.9951C303.588 47.6456 304.323 57.0408 306.691 65.0342C307.041 66.2142 308.159 67.7278 311.805 71.2402C315.06 74.3767 319.731 78.6198 324.093 84.5176C333.136 96.7438 340.317 115.187 338.488 147.588C337.005 173.871 327.377 198.971 316.226 219.474C305.065 239.993 292.11 256.396 283.382 265.389L283.379 265.392C271.512 277.603 239.522 304.924 205.898 316.271C195.984 319.618 180.423 319.974 166.903 319.017C159.964 318.525 153.185 317.66 147.435 316.519C141.973 315.434 136.54 313.937 132.948 311.787C131.024 310.636 129.874 308.924 129.31 307.271L129.204 306.941L125.351 293.935C125.118 293.151 125 292.338 125 291.521V284.475C125 282.761 125.518 281.089 126.485 279.675L132.327 271.137C137.216 259.117 156.228 232.666 197.84 204.925C213.462 194.51 226.428 176.003 235.71 156.729C245 137.438 249.974 118.698 250.507 108.837V108.836C250.531 108.396 250.588 107.952 250.687 107.499C251.592 103.325 253.713 97.0309 257.255 90.6787C260.224 85.3533 264.398 79.6181 270.045 75.1084L270.461 55.8584L267.909 50.7549L264.517 49.0586C262.5 48.0505 260.967 46.2824 260.254 44.1436L256.169 31.8877C254.797 27.7722 256.744 23.2842 260.687 21.4746L289.433 8.2793L289.845 8.10352Z" fill="url(#paint1_linear_3066_10234)" stroke="#1A1A2E" stroke-width="15"/>
<path d="M171.903 282.614C172.022 282.562 172.521 282.382 172.734 282.295C172.518 282.445 171.471 282.801 171.903 282.614ZM188.439 264.891C188.312 265.036 188.184 265.18 188.056 265.323C188.479 265.002 189.021 264.527 189.423 264.233C189.489 264.185 189.377 264.393 189.528 264.274C189.68 264.154 189.58 264.077 189.789 263.886C190.038 263.663 191.151 262.842 191.53 262.521C192.921 261.338 194.335 260.026 195.727 258.883C194.365 260.206 195.863 259.043 196.238 258.656C196.321 258.569 196.144 258.378 197.621 257.159C198.559 256.382 197.967 257.436 199.359 255.932C198.034 256.746 199.182 255.748 200.07 254.928C200.223 254.787 201.501 253.68 202.049 253.158C202.236 252.98 202.428 252.594 202.677 252.357C202.848 252.195 203.034 252.137 203.287 251.896C204.442 250.79 205.589 249.694 206.786 248.588C206.369 249.563 207.443 248.206 207.512 248.166C207.869 247.983 206.616 249.225 207.166 248.798C207.868 248.111 208.544 247.441 209.224 246.762C208.625 247.272 209.73 245.764 210.065 245.63C209.699 245.457 213.428 242.772 213.808 242.195C213.89 242.071 213.097 242.6 214.686 241.111C214.858 240.949 214.879 241.1 214.958 241.004C215.006 240.946 215.054 240.345 215.537 240.154C215.713 240.083 215.104 241.079 216.757 239.226C215.813 239.64 218.945 236.628 219.569 236.101C219.42 236.181 219.272 236.26 219.123 236.338C219.772 235.861 219.774 235.658 219.902 235.532C220.417 235.025 221.204 234.384 221.649 233.882C222.168 233.296 221.985 233.118 222.672 232.512C222.485 232.633 222.298 232.754 222.112 232.874C222.546 232.419 222.98 231.961 223.415 231.501C222.679 232.821 223.639 231.278 223.712 231.185C223.829 231.037 223.75 231.333 223.947 231.088C223.967 231.062 223.84 231.007 224.152 230.636C224.806 229.862 224.82 230.093 225.103 229.774C225.128 229.744 224.95 229.766 225.419 229.196C226.889 227.395 225.485 229.261 225.431 229.345C225.368 229.447 226.271 229.188 224.814 230.551C225.301 230.092 225.508 230.191 225.562 230.139C225.609 230.094 226.363 229.2 226.393 229.153C226.71 228.682 226.271 228.95 226.323 228.849C226.366 228.769 227.424 227.867 227.297 227.317C228.045 227.1 227.332 227.861 226.648 228.733C226.605 228.912 227.471 228.057 227.513 228.007C228.548 226.824 227.716 227.247 227.776 226.841C227.808 226.627 228.405 226.301 227.785 226.541C228.694 225.44 228.263 226.214 228.343 226.162C228.464 226.083 228.724 225.645 228.774 225.605C228.847 225.547 228.719 225.861 228.985 225.611C229.028 225.569 229.27 225.002 228.711 225.515C229.388 224.769 229.214 224.726 229.678 224.676C229.672 223.749 230.276 224.526 230.481 224.339C231.023 223.84 230.521 223.694 230.529 223.649C230.585 223.355 231.993 221.934 232.257 221.507C232.395 221.879 231.244 222.726 231.095 223.004C230.598 223.939 232.164 222 232.009 222.854C232.122 222.535 232.234 222.216 232.346 221.897C232.93 221.63 232.496 222.343 233.418 221.072C233.397 220.722 232.74 221.949 232.77 221.617C232.788 221.423 233.348 220.709 233.314 220.657C233.272 220.599 232.813 221.284 232.812 221.115C232.813 220.752 234.886 218.576 233.536 220.421C233.885 219.992 234.36 219.966 234.635 219.624C234.676 219.573 234.713 219.514 234.744 219.446C234.801 219.32 234.589 219.403 234.407 219.437C234.25 219.467 234.115 219.46 234.187 219.258C234.254 219.067 234.522 218.685 235.12 218.003C235.333 218.089 234.416 218.974 234.406 219.011C234.396 219.062 234.925 219.196 234.97 219.181C235.132 219.113 236.83 216.583 237.429 216.222C237.045 216.249 238.827 214.368 238.931 214.088C238.958 214.015 238.647 214.13 238.681 214.055C238.904 213.593 239.977 212.716 240.359 212.229C240.789 211.683 240.615 211.663 240.639 211.632C240.832 211.394 240.765 211.649 240.878 211.5C241.05 211.276 242.243 209.732 242.285 209.639C242.297 209.612 241.967 209.767 242.197 209.407C242.236 209.345 242.373 209.503 243.058 208.436C243.883 207.151 242.223 209.14 242.429 208.508C243.258 207.9 242.997 207.75 243.174 207.551C243.236 207.482 243.849 207.078 244.268 206.478C243.99 206.927 243.712 207.374 243.426 207.829C243.778 207.428 244.326 206.59 244.62 206.272C244.762 206.117 244.83 206.374 245.092 206.004C245.147 205.924 244.961 205.33 244.445 206.418C244.242 206.391 244.672 206.003 244.784 205.762C244.801 205.725 244.648 205.428 244.997 205.263C245.082 205.223 245.285 206.432 246.091 204.235C246.117 204.164 245.879 204.309 245.903 204.239C245.919 204.191 246.292 203.744 246.317 203.684C246.341 203.621 246.081 203.782 246.107 203.706C246.24 203.314 246.933 203.148 246.424 203.8C246.633 203.608 246.841 203.416 247.049 203.222C246.585 203.267 247.218 202.813 247.43 202.494C248.786 200.443 247.65 201.666 247.795 201.255C248.024 200.601 248.228 201.35 248.647 200.434C248.686 200.348 247.788 201.203 249.248 199.345C249.059 199.637 248.869 199.928 248.679 200.218C249.075 200.237 249.375 199.173 249.417 199.104C249.903 198.315 249.65 198.897 250.284 197.667C250.34 197.557 250.56 197.378 250.674 197.137C251.147 196.143 249.777 198.278 249.623 198.259C249.55 198.254 251.099 196.01 251.176 195.945C251.515 195.686 250.534 197.004 250.853 196.835C250.975 196.772 253.026 193.476 253.498 192.859C254.054 192.146 254.642 192.02 254.23 191.772C254.776 191.797 254.619 191.445 254.684 191.35C255.475 190.196 255.479 190.195 256.083 189.156C256.216 188.927 256.457 188.803 256.485 188.714C256.502 188.661 256.318 188.674 256.418 188.428C256.56 188.089 257.859 186.282 258.014 186.177C258.171 186.075 257.555 186.992 257.775 186.888C258.203 186.214 258.573 185.543 259.002 184.859C259.18 184.574 259.171 184.764 259.248 184.641C259.281 184.589 259.805 183.555 259.75 183.582C259.626 183.651 257.823 186.729 258.168 185.848C258.235 185.679 258.754 185.232 258.475 185.198C260.191 182.486 261.838 179.786 263.457 177.008C262.712 178.693 261.546 180.414 260.593 182.062C260.463 182.288 259.984 183.051 260.152 183.015C261.019 181.611 261.967 179.851 262.813 178.512C262.84 178.47 262.846 178.678 262.953 178.521C263.155 178.228 263.564 177.15 263.697 177C263.722 176.975 263.528 177.608 263.705 177.472C264.156 177.122 263.769 176.792 263.989 176.41C264.165 176.11 265.465 174.218 265.598 173.658C265.745 173.066 264.719 175.089 264.682 174.886C265.305 173.49 266.17 172.174 266.839 170.872C266.851 170.849 266.66 171.009 266.801 170.715C267.047 170.204 267.237 170.124 267.385 169.886C267.545 169.631 268.016 168.682 268.124 168.573C268.138 168.559 268.157 168.801 268.145 168.831C267.982 169.264 267.753 169.343 267.732 169.38C267.653 169.517 267.641 169.681 267.571 169.807C267.456 170.015 267.341 170.106 267.191 170.38C267.087 170.57 267.29 170.432 267.189 170.614C267.152 170.681 266.523 171.298 266.739 171.477C266.828 171.543 269.974 165.605 270.192 164.972C269.91 165.478 269.627 165.981 269.342 166.482C269.931 165.469 270.373 164.135 270.678 164.149C272.611 160.215 274.419 156.31 276.157 152.277C276.477 151.569 276.43 152.001 276.889 150.809C276.725 151.103 276.56 151.395 276.393 151.687C276.68 151.098 277.841 148.417 277.994 147.966C278.014 147.908 277.955 147.802 278.224 147.12C278.463 146.514 278.566 146.436 278.707 146.115C278.826 145.845 278.93 145.534 278.966 145.454C278.993 145.392 279.04 145.38 279.104 145.234C279.305 144.775 279.057 145.123 279.353 144.694C279.314 144.808 279.275 144.922 279.236 145.036C279.472 144.479 279.814 143.721 279.524 144.56C279.474 144.704 279.487 144.572 279.446 144.678C277.829 148.886 279.211 145.527 279.702 144.062C279.895 143.702 280.65 141.569 280.684 141.498C280.731 141.403 280.633 141.778 280.833 141.306C280.878 141.21 281.866 138.324 281.55 139.374C281.486 139.592 280.995 140.969 280.878 141.299C281.237 140.544 281.755 138.672 281.833 138.465C282.129 137.629 281.347 140.091 281.994 138.204C282.487 136.748 281.987 138.105 282.157 137.54C282.259 137.219 282.837 135.612 282.775 135.642C282.957 135.082 282.871 135.414 282.896 135.346C282.919 135.279 283.27 134.173 283.394 133.815C283.409 133.772 283.383 133.913 283.399 133.868C283.43 133.782 283.765 132.709 283.778 132.665C283.786 132.638 283.692 132.891 283.722 132.785C283.758 132.662 284.089 131.628 284.104 131.57C284.126 131.489 283.722 132.766 283.776 132.55C283.969 131.964 284.267 131.001 284.387 130.609C284.358 130.705 284.175 131.278 284.11 131.476C284.126 131.38 284.526 130.151 284.398 130.573C284.479 130.305 284.419 130.487 284.464 130.336C284.476 130.296 284.599 129.916 284.622 129.842C284.625 129.832 284.494 130.224 284.518 130.145C284.562 130.003 284.942 128.848 284.972 128.753C285.058 128.486 284.753 129.43 284.73 129.509C284.728 129.521 284.985 128.718 284.988 128.705C285.003 128.658 284.723 129.553 284.757 129.451C284.826 129.23 284.895 129.009 284.963 128.787C284.705 129.645 284.214 131.216 284.098 131.622C284.487 130.366 284.891 129.038 284.891 129.041C284.891 129.042 284.736 129.591 284.743 129.57C284.769 129.49 284.982 128.727 284.99 128.699C284.997 128.676 285 128.665 285 128.665C285 128.665 284.696 129.753 284.681 129.807C284.659 129.899 284.799 129.417 284.799 129.417C284.794 129.434 284.588 130.21 284.662 129.949C284.736 129.685 284.912 129.005 284.918 128.981C284.952 128.851 284.646 130.041 284.638 130.077C284.635 130.096 284.802 129.458 284.806 129.439C284.811 129.423 284.69 129.91 284.647 130.102C284.614 130.245 284.719 129.83 284.701 129.903C284.689 129.956 284.411 131.08 284.398 131.134C284.379 131.217 284.45 130.955 284.442 130.994C284.431 131.049 284.339 131.41 284.353 131.364C284.367 131.33 284.719 129.925 284.715 129.933C284.716 129.95 284.365 131.444 284.702 130.056C284.704 130.046 284.777 129.706 284.779 129.696C284.825 129.487 284.601 130.58 284.88 129.244C284.365 131.729 284.824 129.555 284.753 129.924C284.728 130.067 284.538 131.031 284.538 131.036C284.564 130.944 284.619 130.636 284.643 130.532C284.655 130.475 284.494 131.339 284.538 131.146C284.56 131.046 284.732 130.129 284.739 130.091C284.809 129.728 284.73 130.174 284.747 130.095C284.758 130.042 284.857 129.486 284.859 129.472C284.863 129.449 284.735 130.204 284.71 130.362C284.691 130.482 284.771 130.034 284.758 130.117C284.677 130.621 284.478 131.685 284.675 130.661C284.687 130.598 284.751 130.208 284.753 130.196C284.797 129.956 284.68 130.675 284.664 130.804C284.637 131.027 284.796 129.993 284.666 130.853C284.773 130.21 284.825 129.849 284.938 129.091C284.62 131.187 284.546 131.932 284.873 129.603C284.769 130.344 284.789 130.264 284.759 130.485C284.742 130.623 284.576 131.693 284.677 131.208C284.689 131.147 284.77 130.492 284.75 130.699C284.544 132.266 284.751 130.733 284.751 130.731C284.772 130.759 284.253 134.579 284.146 135.225C284.039 135.983 283.982 136.664 283.958 136.828C283.877 137.368 283.92 136.914 283.893 137.033C283.867 137.146 283.669 138.714 283.654 138.792C283.593 139.09 283.609 138.776 283.602 138.807C283.521 139.176 283.187 141.262 283.069 141.838C283.102 141.828 283.31 140.662 283.225 141.402C283.128 142.264 282.993 142.278 282.983 142.298C282.273 146.139 281.414 150.047 280.456 153.847C280.588 153.84 281.109 151.311 281.134 151.257C281.3 150.957 280.287 155.163 280.088 155.683C280.218 155.295 280.347 154.903 280.47 154.522C280.444 155.236 279.871 156.687 279.671 157.68C279.607 158.003 279.827 157.418 279.828 157.431C279.792 157.807 279.594 158.359 279.63 157.907C279.472 158.797 279.422 158.641 279.232 159.299C279.223 159.333 279.364 159.072 279.246 159.604C279.191 159.854 278.823 161.155 278.83 161.35C278.835 161.431 279.275 160.864 279.08 160.702C279.579 159.321 279.108 160.213 279.266 159.664C279.29 159.579 279.358 159.819 279.678 158.404C279.816 158.744 279.227 160.294 279.173 160.576C279.075 161.163 279.819 158.866 279.767 158.376C279.875 158.634 279.833 158.217 279.976 157.695C280.132 157.124 280.113 157.39 280.193 157.079C280.409 156.227 280.214 156.544 280.485 155.873C280.017 156.458 280.752 154.653 280.943 154.138C280.752 155.023 280.546 155.936 280.337 156.836C280.366 156.79 280.395 156.744 280.423 156.699C280.363 156.934 280.301 157.17 280.24 157.405C280.234 157.361 280.228 157.318 280.222 157.275C280.016 158.526 279.821 158.779 279.793 158.877C279.446 160.141 279.045 161.597 278.68 162.862C278.623 163.055 278.788 162.957 278.279 164.328C278.116 164.763 278.149 164.305 278.01 164.816C278.075 165.547 277.874 165.456 277.816 165.643C277.65 166.18 277.613 166.533 277.598 166.583C277.402 167.25 277.083 168.212 276.857 168.938C276.854 168.952 277.061 168.611 276.883 169.07C276.823 169.235 275.97 170.543 275.637 171.88C275.782 171.553 275.922 171.232 276.061 170.91C275.902 171.276 275.01 174.098 275.355 173.463C275.566 173.076 275.676 171.955 275.95 171.944C275.576 172.853 273.825 177.944 273.6 178.294C273.571 178.343 273.616 177.974 273.576 178.044C273.547 178.098 273.12 179.246 273.027 179.381C272.972 179.461 273.119 178.936 273.073 178.962C273.042 178.982 272.425 180.402 272.498 180.534C272.599 180.162 273.035 179.188 272.915 179.75C272.9 179.823 272.692 180.137 272.673 180.225C272.501 181.04 273.374 178.773 273.502 178.433C273.098 179.892 272.04 182.023 271.442 183.677C271.072 184.284 271.714 182.639 271.323 183.34C270.507 184.79 271.276 183.811 271.267 183.864C271.201 184.293 270.132 185.325 270.516 185.52C270.215 186.04 270.245 185.838 269.95 186.637C270.022 186.549 270.095 186.461 270.167 186.373C270.019 187.346 268.588 188.889 268.606 188.722C268.661 188.294 269.286 187.439 269.319 187.354C269.366 187.229 269.129 186.693 270.068 185.569C270.047 184.903 268.952 187.542 269.309 186.269C268.983 187.09 267.219 190.282 267.103 190.806C267.091 190.87 267.495 190.759 266.959 191.486C266.703 191.831 267.155 190.911 267.006 191.051C266.595 191.487 262.913 198.801 262.131 200.116C262.082 200.204 262.011 200.118 261.963 200.203C261.819 200.464 261.402 201.511 261.085 201.959C261.819 201.081 260.731 202.995 260.426 203.462C259.967 204.173 259.833 204.026 259.612 204.318C258.756 205.443 258.007 207.52 257.054 208.219C257.442 208.405 255.858 209.704 255.366 210.438C254.983 211.016 254.662 212.015 255.322 211.333C254.645 212.323 254.012 213.407 253.397 214.349C253.294 214.506 253.335 214.219 253.163 214.489C253.149 214.514 253.229 214.62 253.084 214.854C251.881 216.777 252.29 215.713 251.983 216.014C251.811 216.181 251.693 216.31 251.613 216.41C252.352 215.326 253.18 214.037 253.401 213.707C252.985 213.828 251.782 216.138 251.284 216.7C251.266 216.72 251.194 216.554 251.177 216.575C251.177 216.576 251.177 216.576 251.176 216.577C251.005 216.8 250.006 218.281 250.37 218.093C250.467 218.043 250.95 217.378 251.503 216.57C251.378 216.807 251.633 216.748 251.612 216.79C251.353 217.304 250.406 218.328 250.098 218.708C250.028 218.795 250.122 218.856 250.112 218.871C249.828 219.215 249.681 218.876 249.674 219.442C248.878 219.852 250.52 218.188 250.215 218.164C250 218.151 246.986 222.352 247.23 222.528C247.192 222.521 247.115 222.552 246.989 222.639C246.708 222.832 245.851 223.985 245.742 224.214C245.726 224.254 245.976 224.432 245.946 224.474C245.871 224.583 244.598 225.799 244.323 226.423C244.583 226.17 244.834 225.927 245.089 225.678C243.753 227.343 244.017 227.152 244.547 226.648C244.57 226.62 244.601 226.6 244.624 226.574C245.026 226.186 245.515 225.677 245.541 225.683C245.6 225.7 244.806 226.759 244.2 227.436C243.811 227.87 243.513 228.137 243.602 227.852C243.616 227.809 243.849 227.548 244.048 227.312C244.304 227.009 244.504 226.747 244.117 227.041C244.087 227.064 244.025 227.135 243.948 227.23C243.714 227.518 243.339 228.018 243.298 228.04C243.093 228.154 243.451 227.562 243.727 227.049C243.932 226.667 244.092 226.33 243.944 226.37C243.87 226.574 243.754 226.769 243.617 226.96C243.368 227.307 243.052 227.641 242.806 227.99C242.633 228.235 242.705 228.39 242.683 228.42C242.361 228.87 242.435 228.529 242.32 228.673C242.26 228.751 241.824 229.802 241.594 229.341C239.548 232.276 241.226 230.33 242.614 228.624C242.303 229.269 241.361 230.253 240.996 230.739C240.865 230.914 241.069 230.918 240.853 231.218C240.426 231.826 237.852 234.466 237.183 235.124C237.532 234.656 237.29 234.669 236.998 235.009C236.705 235.348 237.128 235.221 237.088 235.302C237.044 235.391 235.543 236.861 235.326 237.131C236.339 235.924 235.97 236.072 235.047 237.035C235.143 236.862 235.239 236.688 235.334 236.514C234.861 237.126 233.515 238.174 233.257 238.552C233.216 238.612 233.498 238.522 233.475 238.556C233.242 238.888 232.191 239.767 232.182 239.844C232.173 239.91 232.663 239.576 232.556 239.77C232.533 239.811 232.005 240.081 231.654 240.504C231.524 240.661 231.706 240.665 231.676 240.707C231.422 241.055 231.438 240.723 230.915 241.301C230.53 241.725 230.394 242.168 229.771 242.682C231.812 241.045 230.196 242.494 229.46 243.33C229.344 243.462 229.622 243.525 228.785 244.175C230.082 242.315 228.169 244.463 227.742 244.858C227.717 244.879 227.6 244.777 227.391 244.973C227.373 244.99 227.473 245.04 227.286 245.229C225.51 247.011 226.597 245.822 226.177 246.077C225.998 246.186 225.214 247.117 224.97 247.345C224.914 247.397 224.865 247.296 224.65 247.5C224.269 247.861 224.001 248.259 223.751 248.497C223.722 248.524 223.605 248.405 223.158 248.881C223.032 249.015 222.92 249.196 223.147 249.056C223.896 248.6 224.939 247.272 225.746 246.738C226.499 246.24 224.456 248.148 224.339 248.25C224.299 248.286 224.649 247.855 224.223 248.22C223.861 248.532 223.413 249.326 222.84 249.75C222.796 249.783 222.206 249.981 222.216 249.953C222.227 249.93 222.839 249.315 222.696 249.347C222.679 249.352 222.269 249.72 222.179 249.729C222.069 249.741 221.464 249.443 221.366 249.51C221.116 249.681 221.359 249.655 221.207 249.777C220.882 250.04 219.678 250.854 219.788 251.04C219.975 250.894 220.162 250.747 220.35 250.6C219.371 251.485 219.856 251.18 219.742 251.333C219.618 251.498 219.533 251.324 219.179 251.607C219.102 251.672 217.692 252.929 217.769 252.962C218.482 252.195 218.34 252.614 218.38 252.586C218.529 252.478 218.621 252.231 218.809 252.073C220.137 250.956 218.949 252.248 219.295 252.02C219.414 251.941 219.552 251.676 219.602 251.641C219.761 251.527 219.863 251.63 219.951 251.539C220.157 251.324 219.756 251.4 219.767 251.377C219.879 251.109 220.773 250.542 220.437 251.133C220.786 250.937 220.634 250.706 220.941 250.583C221.552 250.335 220.82 250.903 220.657 251.092C220.072 251.771 219.793 251.876 218.837 252.735C218.493 253.044 218.161 253.492 218.002 253.634C217.9 253.725 216.629 254.202 217.063 254.746C216.637 255.008 215.739 255.152 215.363 255.484C215.025 255.783 215.296 255.875 215.27 255.909C215.231 255.958 214.786 256.292 214.66 256.436C214.514 256.604 214.66 256.605 214.41 256.851C213.787 257.462 213.646 257.261 213.565 257.305C212.633 257.806 213.213 257.787 213.05 257.949C212.897 258.107 210.455 259.81 210.009 260.24C210.185 260.051 210.355 259.865 210.527 259.676C210.075 259.835 209.838 260.308 209.664 260.114C209.856 260.495 208.912 260.847 208.69 261.024C208.602 261.094 208.654 261.144 208.543 261.229C208.107 261.565 207.075 262.244 206.858 262.442C205.912 263.304 208.729 261.596 208.952 261.447C208.529 261.759 206.206 263.52 207.422 262.895C207.61 262.799 207.796 262.443 207.887 262.37C208.5 261.872 208.098 262.362 208.158 262.338C208.26 262.297 208.583 261.868 208.707 261.802C208.748 261.779 208.602 262.07 209.219 261.627C209.008 261.964 207.204 263.104 206.999 263.285C206.926 263.349 207.619 263.238 205.959 264.033C205.993 264.043 206.027 264.053 206.061 264.063C205.258 264.63 204.394 265.233 203.562 265.799C203.616 265.69 204.014 265.274 203.434 265.694C203.1 265.935 203.437 265.874 203.408 265.899C203.14 266.154 197.594 269.642 196.514 270.269C196.15 270.496 195.194 271.171 195.103 271.225C194.628 271.519 192.905 272.443 192.579 272.64C192.374 272.765 192.625 272.729 192.436 272.831C192.259 272.925 192.389 272.75 192.335 272.776C191.905 272.994 188.673 274.889 187.836 275.229C188.324 275.01 190.658 273.546 190.553 273.529C190.541 273.526 189.93 273.791 189.824 273.886C189.585 273.936 189.023 274.494 188.628 274.657C188.584 274.675 188.681 274.485 188.01 274.822C187.779 274.939 187.234 275.332 186.585 275.558C185.798 276.04 181.042 278.277 180.813 278.477C180.806 278.486 181.469 278.21 181.056 278.454C180.503 278.777 180.94 278.36 180.234 278.681C180.125 278.735 178.206 279.652 178.151 279.684C177.616 280.033 179.318 279.302 179.303 279.319C179.257 279.375 177.865 280.023 177.806 280.04C177.75 280.059 178.821 279.439 177.482 280.093C177.645 280.036 177.809 279.979 177.973 279.922C177.345 280.234 177.243 280.185 177.086 280.25C176.596 280.452 176.151 280.774 175.272 280.996C175.044 281.054 175.371 280.865 175.342 280.871C175.065 280.937 174.81 281.196 174.386 281.269C174.355 281.275 175.196 280.847 173.674 281.503C173.783 281.467 173.892 281.43 174.001 281.393C173.794 281.509 172.269 282.159 172.066 282.234C171.461 282.467 171.966 282.196 171.353 282.456C171.79 282.367 169.896 283.138 169.979 283.035C169.75 283.213 168.137 283.77 167.411 284.035C166.929 284.217 165.952 284.6 165.801 284.649C165.614 284.712 165.653 284.658 165.317 284.77C165.222 284.804 164.243 285.174 163.385 285.428C163.216 285.478 162.827 285.564 163.145 285.44C163.671 285.235 164.672 284.924 164.649 284.896C164.609 284.875 163.317 285.358 162.917 285.493C161.181 286.08 162.17 285.707 162.12 285.715C161.995 285.738 161.069 286.062 161.032 286.072C160.87 286.121 161.517 285.882 161.523 285.867C161.526 285.849 160.634 286.141 160.833 286.065C161.115 285.959 161.941 285.681 161.994 285.66C162.668 285.394 161.719 285.706 161.461 285.785C161.382 285.809 161.685 285.686 161.62 285.708C160.642 286.052 161.434 285.83 160.789 286.06C160.217 286.261 160.943 285.979 160.921 285.985C160.892 285.995 160.212 286.241 160.105 286.273C160.047 286.298 161.804 285.598 161.724 285.599C161.155 285.826 160.593 286.045 160.039 286.253C159.986 286.253 160.795 285.964 160.88 285.929C161.046 285.86 160.572 286.029 160.59 286.015C160.599 286.008 161.141 285.778 160.643 285.966C160.473 286.031 160.12 286.182 159.507 286.4C161.631 285.563 160.147 286.12 160.082 286.142C160.019 286.161 161.026 285.74 159.797 286.234C159.73 286.223 159.818 286.214 160.165 286.067C160.592 285.882 159.587 286.284 161.171 285.638C161.068 285.658 159.809 286.185 159.746 286.207C159.688 286.229 159.962 286.108 159.862 286.146C158.675 286.604 159.488 286.283 159.132 286.412C159.097 286.425 157.937 286.9 158.818 286.532C160.4 285.86 161.02 285.615 161.263 285.43C160.112 285.926 158.75 286.55 158.372 286.703C157.825 286.932 158.389 286.689 158.321 286.716C158.297 286.725 157.828 286.923 157.822 286.924C157.473 287.054 159.93 286.028 160.635 285.7C160.434 285.782 160.234 285.865 160.035 285.947C160.301 285.827 160.569 285.706 160.839 285.583C159.555 286.149 160.79 285.604 161.095 285.413C161.162 285.37 160.326 285.781 161.278 285.304C160.566 285.634 160.788 285.522 160.158 285.827C160.166 285.812 161.592 285.114 162.169 284.813C160.14 285.784 161.306 285.285 159.586 286.065C159.277 286.225 160.086 285.846 160.022 285.878C159.787 285.996 159.229 286.246 158.515 286.588C158.401 286.641 158.894 286.44 158.17 286.753C158.09 286.787 157.631 286.977 157.637 286.974C157.695 286.944 158.148 286.749 158.166 286.738C158.182 286.728 157.679 286.95 157.677 286.95C157.659 286.951 158.096 286.764 158.032 286.789C157.891 286.842 156.09 287.638 158.442 286.585C156.489 287.47 158.184 286.717 158.963 286.355C159.157 286.265 159.222 286.228 159.48 286.104C159.818 285.942 160.221 285.755 160.399 285.668C160.591 285.572 159.488 286.082 161.073 285.321C160.256 285.696 158.855 286.388 158.016 286.759C156.378 287.501 159.156 286.21 159.444 286.055C159.517 286.019 159.268 286.129 159.316 286.105C159.39 286.069 160.905 285.322 161.057 285.229C161.202 285.142 160.496 285.514 160.446 285.526C160.406 285.542 162.253 284.568 161.247 285.083C160.547 285.446 159.336 286.084 159.091 286.176C160.1 285.67 161.082 285.158 162.113 284.608C161.544 284.89 160.983 285.169 160.432 285.444C161.535 284.856 162.605 284.31 163.597 283.72C161.076 285.054 164.379 283.221 164.42 283.177C164.428 283.165 163.418 283.679 163.26 283.76C164.102 283.261 166.793 281.623 165.182 282.495C165.474 282.342 166.146 281.873 166.135 281.874C166.025 281.896 164.539 282.837 164.77 282.657C165.034 282.45 165.452 282.253 165.89 281.978C168.053 280.592 167.319 280.764 169.521 279.337C169.473 279.358 169.424 279.378 169.376 279.399C171.676 277.852 174.013 276.233 176.268 274.617C177.127 273.849 179.352 272.054 180.508 271.181C180.737 271.009 181.922 270.198 181.999 270.155C182.17 270.058 181.323 270.726 181.739 270.47C181.822 270.421 183.707 269.001 183.524 269.024C183.309 269.18 182.68 269.73 182.562 269.794C181.719 270.279 187.564 265.797 187.773 265.507C187.628 265.582 187.483 265.656 187.339 265.731C187.705 265.452 188.072 265.173 188.439 264.891ZM173.609 281.77C173.371 281.929 172.69 282.161 172.311 282.329C171.8 282.557 170.925 283.096 171.249 282.77C172.066 282.431 172.816 282.118 173.609 281.77ZM185.152 276.575C184.601 276.802 184.909 276.438 185.382 276.282C185.429 276.267 185.899 276.267 185.152 276.575ZM179.627 279.16C179.648 279.149 180.111 278.937 180.129 278.932C180.575 278.794 179.178 279.429 179.627 279.16ZM205.069 264.479C204.541 264.856 205.089 264.795 205.357 264.482C205.373 264.463 205.104 264.454 205.069 264.479ZM204.684 264.734C204.128 264.837 203.576 265.769 204.213 265.283C204.275 265.237 204.711 264.731 204.684 264.734ZM183.246 277.447C183.275 277.372 183.827 277.127 184.065 277.023C184.086 277.071 183.467 277.332 183.246 277.447ZM196.553 270.132C196.539 270.073 194.778 271.13 194.683 271.273C194.966 271.069 196.562 270.193 196.553 270.132ZM201.036 267.22C200.985 267.24 200.398 267.638 200.449 267.673C200.787 267.548 201.265 267.134 201.036 267.22ZM209.798 261.194C209.819 261.157 209.113 261.157 210.33 260.602C210.509 260.521 210.033 261.01 210.097 260.981C210.23 260.92 210.328 260.865 210.403 260.813C209.938 261.199 209.443 261.578 209.378 261.594C209.073 261.668 209.788 261.21 209.798 261.194ZM214.041 257.584C214.092 257.454 214.737 256.995 214.899 256.905C214.927 256.89 214.946 257.119 215.217 256.887C215.434 256.7 214.97 256.817 215.427 256.494C215.879 256.174 215.396 256.739 215.437 256.718C215.501 256.685 216.108 256.088 216.164 256.191C216.204 256.268 215.452 256.792 215.277 256.953C215.059 257.154 215.434 257.038 215.025 257.321C214.768 257.499 214.742 257.206 214.682 257.237C214.633 257.264 213.872 258.037 214.043 257.584C214.043 257.584 214.042 257.584 214.041 257.584ZM210.527 260.708C210.496 260.741 210.455 260.776 210.403 260.813C210.444 260.778 210.487 260.742 210.527 260.708ZM175.137 281.078C175.433 280.985 174.619 281.376 174.288 281.472C174.267 281.449 175.09 281.095 175.137 281.078ZM210.844 260.236C211.584 259.757 211.12 260.208 210.527 260.708C210.698 260.528 210.595 260.396 210.844 260.236ZM189.824 273.886C189.864 273.877 189.895 273.882 189.915 273.906C189.809 273.926 189.792 273.915 189.824 273.886ZM191.643 272.937C192.197 272.51 190.962 273.214 191.009 273.266C191.027 273.286 191.621 272.955 191.643 272.937ZM205.752 264.024C205.692 264.05 206.267 263.18 205.263 264.229C205.923 263.829 205.283 264.322 205.312 264.342C205.399 264.401 206.405 263.593 206.668 263.459C206.742 263.192 205.951 263.938 205.753 264.023C205.753 264.023 205.752 264.024 205.752 264.024ZM221.888 251.263C221.838 251.469 221.387 251.806 221.096 252.045C221.147 251.842 221.597 251.506 221.888 251.263ZM276.759 169.535C276.021 172.018 275.579 172.19 276.465 170.011C276.483 169.969 276.776 169.373 276.759 169.535ZM268.372 190.206C268.09 190.333 268.413 189.586 268.712 189.139C268.78 189.039 269.145 188.725 268.963 189.207C268.76 189.082 268.342 189.752 268.372 190.206ZM211.161 259.843C211.281 259.591 211.969 259.187 212.314 258.949C212.181 259.187 211.48 259.656 211.161 259.843ZM273.715 177.494C273.605 177.743 273.674 177.977 273.702 177.938C273.83 177.766 273.903 177.239 273.715 177.494ZM209.088 261.353C209.011 261.316 209.817 260.631 209.997 260.733C209.806 260.858 209.139 261.375 209.088 261.353ZM221.305 251.681C221.153 251.755 221.734 251.149 221.955 251.013C222.003 251.095 221.405 251.634 221.305 251.681ZM272.124 181.614C272.018 181.836 271.777 182.401 271.808 182.492C271.848 182.606 272.17 181.761 272.124 181.614ZM283.947 137.875C283.957 137.846 283.871 138.794 283.799 139.206C283.66 139.989 283.94 137.908 283.947 137.875ZM274.561 175.044C274.953 174.373 274.536 175.126 274.678 175.152C274.864 174.666 275.311 173.448 274.88 174.231C274.796 174.383 274.654 174.82 274.561 175.044ZM274.268 175.692C274.281 175.789 274.221 176.371 274.381 175.916C274.454 175.705 274.43 175.302 274.268 175.692ZM283.063 143.64C282.903 144.303 283.453 141.215 283.467 141.124C283.478 141.078 283.486 141.048 283.492 141.031C283.498 140.913 283.588 140.325 283.627 140.264C283.598 140.44 283.526 140.922 283.514 140.977C283.509 141.001 283.505 141.019 283.501 141.031C283.5 141.247 283.099 143.516 283.063 143.64ZM282.039 148.747C282.111 147.947 282.285 147.853 282.276 147.922C282.168 148.785 282.169 148.201 282.159 148.225C282.138 148.282 282.067 148.896 282.04 148.745C282.039 148.745 282.039 148.746 282.039 148.747ZM282.859 144.683C282.863 144.651 282.982 144.006 282.988 143.98C283.121 143.461 282.789 145.287 282.859 144.683ZM217.14 254.747C217.535 254.475 217.273 254.883 216.992 255.043C216.969 255.055 216.792 254.987 217.14 254.747ZM274.163 176.061C274.109 176.159 273.011 178.744 273.238 178.663C273.312 178.437 274.539 175.482 274.163 176.061ZM265.504 195.333C265.736 194.887 265.668 195.479 265.476 195.678C265.405 195.752 265.445 195.445 265.504 195.333ZM207.829 262.052C207.474 262.436 207.342 262.101 207.781 261.932C207.798 261.925 207.843 262.037 207.829 262.052ZM267.403 191.831C266.752 193.431 266.363 192.754 267.54 190.856C267.534 190.932 267.529 191.009 267.524 191.086C268.732 188.804 267.643 190.951 267.396 191.534C267.302 191.756 267.486 191.627 267.404 191.83C267.404 191.83 267.403 191.831 267.403 191.831ZM264.262 197.658C263.054 198.871 264.834 196.248 265.196 195.401C264.958 196.283 264.395 197.286 265.3 196.001C264.268 198.048 264.543 197.105 264.488 197.179C264.421 197.265 264.313 197.606 264.262 197.658ZM266.29 193.763C266.322 193.672 266.728 193.077 266.83 192.837C266.808 193.24 266.086 194.374 266.29 193.763ZM280.906 154.103C280.861 154.026 280.853 153.87 281.002 153.33C280.991 153.509 280.934 153.866 280.906 154.103ZM172.996 281.769C172.639 281.917 171.929 282.194 172.166 282.144C172.19 282.139 173.007 281.794 172.996 281.769ZM271.005 183.634C270.961 183.706 270.088 185.669 270.5 185.047C270.626 184.861 271.389 183.054 271.005 183.634ZM275.124 173.262C275.062 173.432 274.827 174.129 274.843 174.153C274.901 174.233 275.167 173.367 275.124 173.262ZM171.181 282.478C171.129 282.497 170.017 282.958 170.148 282.923C170.395 282.863 171.354 282.424 171.181 282.478ZM218.275 253.416C218.348 253.347 218.544 253.366 218.572 253.345C218.636 253.297 220.007 252.061 219.592 252.652C219.523 252.756 217.446 254.404 217.17 254.602C216.942 254.545 217.929 253.964 218.127 253.772C218.162 253.738 218.078 253.599 218.274 253.417C218.274 253.416 218.274 253.416 218.275 253.416ZM281.499 151.225C281.468 151.132 281.892 149.034 281.94 149.073C281.796 149.793 281.65 150.51 281.499 151.225ZM281.254 152.28C281.116 152.711 281.341 151.67 281.425 151.367C281.46 151.375 281.275 152.217 281.254 152.28ZM273.363 176.933C273.307 177.144 273.677 176.587 273.648 176.736C273.63 176.832 273.407 177.258 273.392 177.419C273.389 177.466 273.69 177.065 273.735 176.93C273.801 176.738 273.634 176.877 273.713 176.671C273.974 175.988 274.271 175.411 274.509 174.765C274.531 174.707 274.296 175.129 274.482 174.633C274.511 174.556 274.78 174.138 274.983 173.534C275.165 172.086 275.803 171.236 276.262 169.528C276.216 169.581 275.715 170.796 275.685 170.866C275.154 172.243 274.222 174.75 273.66 176.189C273.516 176.559 273.652 176.409 273.593 176.57C273.546 176.696 273.482 176.491 273.363 176.933ZM173.169 281.66C172.972 281.681 172.398 281.966 172.021 282.119C172.176 282.108 172.792 281.808 173.169 281.66ZM278.797 161.557C278.744 161.758 278.536 162.365 278.55 162.426C278.569 162.507 278.849 161.623 278.797 161.557ZM226.053 246.601C226.064 246.584 226.438 246.248 226.456 246.239C226.885 246.036 225.763 247.042 226.053 246.601ZM234.666 238.112C234.914 237.816 235.14 237.49 235.339 237.501C235.156 237.662 234.712 238.217 234.666 238.112ZM245.615 225.513C245.408 225.449 246.224 224.63 246.373 224.469C246.394 224.589 245.765 225.56 245.615 225.513ZM280.632 154.098C280.801 153.426 280.646 153.528 280.804 153.118C280.831 153.051 281.132 152.906 280.863 153.618C280.813 153.746 280.881 153.205 280.632 154.098ZM267.704 190.531C267.683 190.316 267.956 189.827 268.128 189.489C268.164 189.605 267.814 190.285 267.704 190.531ZM169.156 283.256C168.829 283.34 167.461 283.906 167.816 283.797C167.864 283.784 168.957 283.336 169.156 283.256ZM212.255 258.379C212.67 257.901 211.621 258.666 211.374 259.004C211.515 258.887 212.227 258.411 212.255 258.379ZM242.995 228.56C243.009 228.533 243.447 228.027 243.472 228.008C243.942 227.684 242.702 229.118 242.995 228.56ZM231.721 240.812C231.804 240.561 232.974 239.499 233.308 239.324C233.2 239.692 231.62 241.128 231.721 240.812ZM279.959 156.904C280.083 156.418 280.219 155.962 280.354 155.522C280.375 155.632 280.008 156.865 279.959 156.904ZM244.547 226.648C244.57 226.62 244.601 226.6 244.624 226.574C244.598 226.6 244.572 226.624 244.547 226.648ZM276.754 167.614C276.6 168.003 276.734 167.963 276.745 167.94C276.878 167.654 276.928 167.174 276.754 167.614ZM172.694 281.77C172.537 281.782 171.92 282.088 171.552 282.228C171.675 282.218 172.4 281.903 172.694 281.77ZM263.144 199.057C262.746 199.434 263.618 197.455 263.923 197.107C264.027 197.13 263.203 199.002 263.144 199.057ZM210.582 259.394C210.479 259.337 209.851 259.975 210.035 259.9C210.152 259.853 210.645 259.432 210.582 259.394ZM264.494 196.186C264.559 195.989 264.88 195.628 264.864 195.811C264.842 196.045 264.479 196.237 264.494 196.186ZM272.139 179.746C272.092 179.822 271.725 180.967 272.007 180.556C272.201 180.271 272.092 180.158 272.123 180.084C272.159 180.002 273.042 178.299 272.139 179.746ZM256.877 209.37C257.08 208.963 257.42 208.533 257.67 208.13C257.633 208.338 257.069 209.268 256.877 209.37ZM213.308 257.248C213.192 257.288 210.838 259.08 212.255 258.156C212.338 258.104 213.658 257.149 213.308 257.248ZM280.632 154.098C280.611 154.183 280.584 154.28 280.551 154.392C280.581 154.28 280.608 154.183 280.632 154.098ZM278.556 161.765C278.553 161.594 278.311 162.363 278.269 162.6C278.309 162.693 278.557 161.789 278.556 161.765ZM257.581 208.029C257.684 207.767 257.989 207.385 258.16 207.099C258.202 207.194 257.719 207.974 257.581 208.029ZM246.57 223.541C246.943 223.151 247.328 222.61 247.247 222.534C247.267 222.536 247.298 222.526 247.338 222.503C247.38 222.48 247.69 221.99 247.872 221.813C248.969 220.767 244.431 226.469 246.776 222.946C246.708 223.144 246.639 223.343 246.57 223.541ZM230.043 242.14C229.737 242.262 229.237 242.983 229.433 242.861C229.57 242.776 230.354 242.015 230.043 242.14ZM238.045 233.585C237.967 233.638 237.479 234.321 237.517 234.383C237.894 234.076 238.406 233.347 238.045 233.585ZM228.255 243.685C228.104 243.806 228.075 244.121 228.097 244.112C228.291 244.03 228.568 243.542 228.255 243.685ZM280.036 155.416C279.938 155.683 279.771 156.579 279.782 156.791C279.761 156.822 279.719 156.912 279.653 157.08C279.653 157.08 279.653 157.079 279.653 157.079C279.588 157.322 277.526 164.276 279.017 159.65C279.063 159.504 278.946 159.684 279.126 159.089C279.138 159.05 279.192 159.048 279.228 158.926C279.314 158.648 279.754 157.153 279.797 156.836C279.806 156.836 279.819 156.82 279.838 156.78C280.002 156.431 280.111 155.21 280.036 155.416ZM239.133 232.328C238.992 232.43 238.666 232.855 238.699 232.957C238.909 232.788 239.46 232.092 239.133 232.328ZM213.027 257.062C212.717 257.226 212.115 257.851 212.361 257.738C212.513 257.67 213.385 256.873 213.027 257.062ZM235.604 236.312C237.007 234.952 235.913 235.965 236.016 235.655C235.879 235.875 235.742 236.094 235.604 236.312ZM282.212 146.715C282.139 147.017 282.134 146.634 282.247 146.313C282.282 146.212 282.252 146.545 282.212 146.715ZM284.489 132.999C284.437 133.255 284.613 131.985 284.56 132.484C284.557 132.507 284.492 132.98 284.489 132.999ZM282.965 142.596C282.965 142.812 282.946 142.948 282.828 143.524C282.977 142.664 282.794 143.449 282.965 142.596ZM247.23 222.528C247.237 222.529 247.242 222.53 247.247 222.534C247.24 222.533 247.234 222.531 247.23 222.528ZM226.956 244.992C226.687 245.069 226.198 245.546 226.437 245.499C226.46 245.494 226.951 245.129 226.956 244.992ZM279.782 156.791C279.802 156.763 279.804 156.782 279.797 156.836C279.788 156.836 279.784 156.82 279.782 156.791ZM229.534 242.336C229.591 242.419 230.355 241.714 230.375 241.676C230.671 241.137 229.843 242.023 229.534 242.336ZM207.474 261.161C207.436 261.2 207.847 261.156 207.967 260.965C208.06 260.817 207.616 261.017 207.474 261.161ZM283.306 140.619C283.362 140.296 283.441 139.841 283.479 139.763C283.439 139.979 283.324 140.631 283.306 140.619ZM284.409 133.493C284.37 133.878 284.253 134.749 284.171 135.303C284.147 135.308 284.367 133.853 284.409 133.493ZM280.291 154.563C280.283 154.585 280.05 155.377 280.133 155.287C280.255 155.15 280.377 154.349 280.291 154.563ZM208.842 260.282C209.095 260.002 208.269 260.349 208.061 260.715C207.954 260.902 208.799 260.33 208.842 260.282ZM225.286 246.336C224.98 246.718 225.948 245.986 225.981 245.778C225.81 245.924 225.394 246.2 225.286 246.336ZM236.861 234.379C235.536 235.261 236.627 235.111 236.766 234.868C236.785 234.833 236.893 234.357 236.861 234.379ZM165.547 284.483C165.347 284.569 166.122 284.314 166.211 284.253C166.265 284.215 165.673 284.429 165.547 284.483ZM251.613 216.41C251.576 216.464 251.539 216.517 251.503 216.57C251.526 216.527 251.561 216.475 251.613 216.41ZM221.669 248.991C222.824 248.636 222.47 248.425 222.541 248.364C222.696 248.231 223.142 248.011 223.411 247.734C223.125 248.074 222.839 248.413 222.551 248.749C222.833 248.552 225.216 246.619 225.187 246.525C225.17 246.378 224.506 247.047 224.474 247.061C224.434 247.078 224.093 246.941 224.02 246.993C223.899 247.082 222.025 248.785 221.669 248.991ZM234.732 236.784C234.93 236.632 235.081 236.674 235.134 236.568C235.152 236.532 235.059 236.438 235.124 236.318C234.993 236.474 234.863 236.629 234.732 236.784ZM220.534 250.606C220.204 250.699 221.269 249.836 221.313 249.817C221.558 249.736 220.804 250.532 220.534 250.606ZM229.078 242.626C229.035 242.656 228.241 243.367 228.308 243.422C228.557 243.273 229.588 242.286 229.078 242.626ZM235.229 236.191C235.492 235.931 236.065 235.505 235.862 235.43C235.862 235.431 235.862 235.431 235.861 235.432C235.651 235.686 235.44 235.939 235.229 236.191ZM209.639 259.247C208.93 259.46 209.399 259.516 209.93 259.217C210 259.015 209.754 259.212 209.639 259.247ZM207.754 260.434C207.571 260.517 206.024 261.727 206.347 261.651C206.463 261.626 207.297 260.859 207.345 260.834C207.417 260.797 207.22 261.13 207.688 260.745C207.627 260.727 207.816 260.407 207.754 260.434ZM209.081 259.463C208.407 259.73 208.513 260.102 208.927 259.79C209.089 259.668 209.177 259.425 209.081 259.463ZM211.292 257.793C211.076 257.917 210.531 258.278 210.257 258.646C210.737 258.288 211.217 257.927 211.697 257.562C211.706 257.465 211.481 257.685 211.291 257.794C211.291 257.793 211.292 257.793 211.292 257.793ZM284.895 129.451C284.82 129.985 284.989 128.754 284.995 128.701C285.015 128.547 284.928 129.212 284.895 129.451ZM161.416 285.512C161.276 285.565 161.18 285.588 160.884 285.723C161.19 285.607 161.498 285.49 161.81 285.373C162.034 285.242 161.567 285.454 161.416 285.512ZM160.233 285.913C160.275 285.894 160.031 285.961 160.581 285.746C160.948 285.61 158.992 286.469 158.579 286.624C159.001 286.442 159.881 286.072 160.233 285.913ZM156.67 287.372C156.646 287.383 157.398 287.047 157.487 287.007C157.95 286.805 156.791 287.324 156.67 287.372ZM159.114 286.271C158.747 286.436 159.554 286.056 159.77 285.956C159.794 285.952 159.184 286.241 159.114 286.271ZM283.398 134.659C283.249 135.057 283.222 135.438 283.382 134.809C283.389 134.779 283.405 134.642 283.398 134.659ZM157.401 287.033C157.757 286.874 156.971 287.234 156.742 287.335C156.719 287.344 157.346 287.059 157.401 287.033ZM283.236 134.925C283.051 135.456 283.195 135.288 283.217 135.222C283.31 134.948 283.549 133.988 283.599 133.791C283.202 135.22 283.322 134.674 283.236 134.925ZM282.56 137.411C282.423 137.915 282.823 136.645 282.864 136.397C282.793 136.645 282.599 137.266 282.56 137.411ZM281.58 140.445C281.49 140.712 281.22 141.503 281.203 141.642C281.293 141.351 281.569 140.565 281.58 140.445ZM281.312 141.031C281.142 141.439 281.21 141.566 281.336 141.077C281.341 141.058 281.319 141.016 281.312 141.031ZM280.496 143.353C280.357 143.611 280.366 143.952 280.517 143.514C280.562 143.383 280.511 143.326 280.496 143.353ZM282.939 135.574C282.805 135.962 282.69 136.476 282.954 135.642C282.869 135.937 282.785 136.232 282.701 136.526C283.061 135.439 282.98 135.504 283.081 135.191C283.22 134.751 283.248 134.795 283.235 134.887C283.318 134.52 283.779 132.978 284.036 132.079C283.802 132.867 283.406 134.136 283.16 134.902C283.09 135.121 283.036 135.337 282.976 135.523C282.881 135.822 282.946 135.552 282.939 135.572C282.939 135.573 282.939 135.573 282.939 135.574ZM279.435 146.398C279.088 147.18 279.404 146.715 279.539 146.254C279.544 146.234 279.444 146.379 279.435 146.398ZM156.392 287.478C157.396 286.993 156.646 287.385 158.797 286.304C157.891 286.769 158.75 286.339 158.574 286.432C158.432 286.507 157.899 286.762 158.212 286.619C157.793 286.816 156.076 287.634 156.007 287.662C156.008 287.661 156.009 287.661 156.01 287.661C155.965 287.682 156.076 287.63 156.392 287.478ZM281.34 140.386C281.137 140.623 281.282 140.777 281.006 141.275C280.911 142.013 281.667 139.344 281.872 139.046C280.923 141.924 282.589 137.166 281.786 139.14C282.381 137.495 281.947 138.592 282.013 138.332C282.085 138.054 282.413 137.115 282.365 137.159C282.365 137.159 282.365 137.16 282.365 137.16C282.179 137.733 281.99 138.311 281.801 138.883C282.064 138.342 281.658 139.509 281.452 139.885C281.414 140.052 281.377 140.219 281.34 140.386ZM282.474 137.159C282.456 137.211 282.065 138.471 282.106 138.393C282.171 138.226 282.717 136.452 282.474 137.159ZM284.138 131.672C284.006 132.125 283.791 132.82 283.73 133.067C283.865 132.618 284.075 131.92 284.138 131.672ZM276.262 154.423C276.097 154.998 276.792 153.289 276.531 153.763C276.519 153.787 276.271 154.395 276.262 154.423ZM280.92 141.677C280.685 142.24 280.899 142.002 281.012 141.568C281.018 141.543 280.931 141.651 280.92 141.677ZM157.202 287.086C157.232 287.07 158.716 286.336 158.991 286.196C158.835 286.287 157.156 287.115 157.202 287.086ZM284.351 130.871C284.058 131.767 283.71 132.986 283.672 133.119C283.63 133.251 283.678 133.04 283.668 133.07C283.647 133.139 283.206 134.541 283.185 134.608C283.171 134.657 283.28 134.411 283.2 134.702C283.362 134.139 284.158 131.563 284.192 131.425C284.223 131.321 283.971 132.103 284.35 130.872C284.351 130.872 284.351 130.871 284.351 130.871ZM283.564 133.45C283.683 133.101 283.38 134.086 283.301 134.322C283.125 134.847 283.549 133.495 283.564 133.45ZM282.805 135.802C282.766 135.913 282.434 136.914 282.426 137.003C282.606 136.536 282.893 135.551 282.805 135.802ZM278.933 146.942C278.842 147.203 278.542 147.903 278.564 147.954C278.656 147.695 278.953 146.993 278.933 146.942ZM162.145 284.406C161.725 284.627 162.696 284.079 162.942 283.941C162.972 283.939 162.182 284.387 162.145 284.406ZM280.635 141.705C280.574 141.861 279.445 144.968 279.294 145.399C279.484 144.99 280.615 141.913 280.653 141.766C280.664 141.724 280.643 141.686 280.635 141.705ZM282.999 134.898C283.077 134.605 283.162 134.421 283.174 134.385C283.296 134.028 283.537 133.282 283.497 133.448C283.285 134.082 282.846 135.482 282.999 134.898ZM278.609 147.091C278.221 148.154 279.059 146.14 278.901 146.39C278.892 146.406 278.65 146.982 278.609 147.091ZM280.75 141.353C280.809 141.116 281.955 137.973 282.125 137.456C282.008 137.923 281.851 138.284 281.638 138.895C281.581 139.06 281.616 139.021 281.61 139.039C281.511 139.324 281.563 139.105 281.501 139.281C281.463 139.394 280.676 141.697 280.75 141.353ZM283.041 134.73C283.09 134.553 283.747 132.576 283.773 132.495C283.983 131.902 283.1 134.582 283.041 134.73ZM280.595 141.626C280.654 141.274 281.265 139.73 280.908 140.803C280.874 140.906 280.689 141.328 280.595 141.626ZM278.566 146.952C278.543 147.004 278.091 148.095 278.113 148.123C278.189 147.97 278.826 146.371 278.566 146.952ZM278.693 146.353C278.683 146.38 278.839 146.138 278.629 146.652C278.612 146.695 278.518 146.757 278.284 147.41C278.236 147.542 278.198 147.758 278.207 147.744C278.574 147.104 279.184 145.009 278.693 146.353ZM283.035 134.69C282.989 134.793 283.05 134.532 283.142 134.304C283.182 134.207 283.134 134.395 283.035 134.69ZM277.152 150.404C277.356 149.758 276.529 151.725 276.501 151.828C276.565 151.778 277.132 150.469 277.152 150.404ZM163.011 283.721C163.011 283.722 163.01 283.722 163.01 283.722C163.494 283.436 163.204 283.633 163.226 283.62C164.273 283.026 163.982 283.146 164.142 283.043C164.487 282.817 164.455 282.908 165.041 282.521C164.072 283.156 164.962 282.595 165 282.599C165.149 282.616 163.669 283.352 163.202 283.654C163.135 283.696 163.642 283.423 163.473 283.532C162.941 283.87 161.089 284.84 163.011 283.721ZM283.201 134.126C283.274 133.871 283.938 131.944 283.773 132.457C283.748 132.542 283.098 134.504 283.201 134.126ZM238.601 215.595C238.795 215.143 237.995 215.919 237.946 216.14C237.922 216.25 238.516 215.795 238.601 215.595ZM233.327 221.262C232.987 221.713 233.014 222.512 233.4 221.919C233.441 221.856 233.425 221.26 233.327 221.262ZM255.355 191.468C254.892 191.883 255.182 192.011 255.411 191.642C255.492 191.511 255.37 191.455 255.355 191.468ZM242.594 210.021C242.549 210.062 242.157 210.62 242.237 210.648C242.428 210.475 242.891 209.764 242.594 210.021ZM255.418 191.287C255.278 191.612 255.798 191.214 255.836 190.74C255.735 190.934 255.432 191.253 255.418 191.287ZM279.966 142.739C279.894 143.028 279.578 143.812 279.407 144.264C279.337 144.298 279.85 143.066 279.966 142.739ZM235.019 219.541C234.782 220.042 235.595 219.216 235.392 219.187C235.375 219.193 235.028 219.521 235.019 219.541ZM264.999 174.961C264.888 175.338 265.575 174.298 265.284 174.537C265.271 174.549 265.005 174.941 264.999 174.961ZM267.584 170.188C267.424 170.444 266.842 171.574 267.14 171.166C267.186 171.103 267.637 170.236 267.584 170.188ZM164.161 283.004C164.008 283.061 164.815 282.571 164.935 282.503C164.982 282.479 164.359 282.934 164.161 283.004ZM253.258 194.673C253.111 194.94 252.644 195.574 252.643 195.743C252.837 195.415 253.47 194.687 253.258 194.673ZM236.546 217.65C236.092 217.881 235.613 218.507 235.95 218.527C236.483 217.836 235.69 218.458 236.546 217.65ZM256.299 189.515C256.156 189.717 256.256 189.991 256.28 189.972C256.512 189.797 256.507 189.351 256.299 189.515ZM246.232 204.884C246.134 204.834 245.718 205.497 245.837 205.452C245.877 205.438 246.312 204.924 246.232 204.884ZM275.969 152.429C275.783 152.749 276.187 151.718 276.363 151.43C276.493 151.305 275.993 152.389 275.969 152.429ZM259.887 183.737C259.785 183.642 259.221 184.738 259.572 184.374C259.659 184.283 259.921 183.77 259.887 183.737ZM265.563 173.407C265.303 174.197 267.028 171.171 266.441 171.907C266.401 171.961 265.587 173.34 265.563 173.407ZM268.296 168.399C268.217 168.523 267.916 168.31 268.315 167.845C268.367 167.784 268.29 168.142 268.339 168.094C268.368 168.067 268.997 166.946 269.016 166.89C269.036 166.829 268.897 166.852 268.915 166.79C268.935 166.72 269.384 166.054 269.571 165.683C269.923 164.984 269.876 164.873 269.905 164.816C269.988 164.649 270.188 164.391 270.356 164.05C271.208 162.327 272.42 159.656 273.208 158.34C272.575 159.547 272.099 160.71 271.532 161.952C271.539 161.532 270.795 163.793 271.21 162.463C270.979 163.072 268.56 168.013 268.297 168.398C268.297 168.398 268.297 168.399 268.296 168.399ZM231.784 222.866C231.86 222.48 230.756 223.857 230.826 224.114C231 223.958 231.773 222.914 231.784 222.866ZM236.603 216.237C236.679 216.088 236.482 215.736 237.167 215.176C237.168 215.176 237.168 215.175 237.169 215.174C237.369 215.01 237.262 215.292 237.317 215.276C237.337 215.271 237.973 214.766 237.591 215.299C237.008 216.11 237.313 215.201 236.98 215.616C236.939 215.667 236.473 216.578 236.544 216.56C236.552 216.558 236.707 216.295 236.752 216.268C236.924 216.163 236.959 216.307 236.98 216.29C237.046 216.231 237.878 214.859 238.158 214.781C238.25 214.759 236.728 216.891 236.64 216.95C236.586 216.988 236.348 216.765 236.282 216.798C236.248 216.815 235.688 217.707 235.58 217.793C235.548 217.818 235.522 217.836 235.502 217.848C235.68 217.788 235.08 218.519 235.01 218.425C234.986 218.384 235.415 217.895 235.435 217.882C235.444 217.876 235.453 217.872 235.461 217.867C235.282 217.897 236.667 216.179 236.226 216.437C236.547 215.874 236.379 216.674 236.603 216.237ZM238.361 213.686C238.347 213.759 238.333 213.832 238.318 213.905C238.953 212.959 239.869 212.043 240.652 211.014C240.85 210.753 240.455 210.93 240.761 210.622C241.006 210.375 241.391 210.184 241.312 210.358C241.293 210.402 240.768 210.887 240.566 211.173C239.967 212.017 240.268 211.915 240.235 211.967C240.199 212.023 239.702 212.463 239.49 212.747C238.953 213.464 238.783 213.863 237.91 214.743C238.255 214.112 237.812 214.263 238.361 213.686ZM262.145 179.07C262.088 178.994 262.527 178.385 262.649 178.144C262.706 178.219 262.268 178.831 262.145 179.07ZM191.328 262.728C191.223 262.973 192.552 261.898 192.146 262.105C192.057 262.151 191.493 262.591 191.328 262.728ZM197.218 257.769C197.367 257.587 196.614 258.121 196.679 258.202C196.7 258.228 197.199 257.792 197.218 257.769ZM247.182 202.127C247.203 202.089 247.598 201.597 247.616 201.586C248.013 201.35 246.73 202.979 247.182 202.127ZM204.033 251.345C203.52 251.962 205.284 250.367 204.672 250.767C204.641 250.788 204.057 251.316 204.033 251.345ZM206.429 249.04C206.294 249.177 205.647 249.723 205.669 249.767C205.706 249.837 206.445 249.207 206.429 249.04ZM255.858 189.074C255.652 189.061 256.367 188.186 256.549 187.851C256.755 187.862 256.05 188.729 255.858 189.074ZM251.917 194.885C254.36 190.924 254.143 191.987 251.841 195.167C251.733 195.108 251.761 195.137 251.917 194.885ZM255.212 189.881C255.221 190.084 254.903 190.517 254.7 190.816C254.664 190.72 255.09 190.111 255.212 189.881ZM189.661 263.885C189.842 263.598 190.906 262.874 190.757 263.058C190.724 263.099 189.616 264 189.661 263.885ZM247.268 201.711C247.044 201.692 247.922 200.585 248.016 200.523C248.408 200.264 247.302 201.591 247.268 201.711ZM259.226 183.337C259.24 183.063 259.667 182.484 259.903 182.091C259.894 182.321 259.429 183.007 259.226 183.337ZM257.419 186.093C257.43 186.066 257.773 185.534 257.793 185.512C258.181 185.133 257.21 186.641 257.419 186.093ZM162.242 283.947C162.262 283.934 162.69 283.667 162.698 283.662C163.083 283.446 161.812 284.236 162.242 283.947Z" fill="#100621"/>
<defs>
<linearGradient id="paint0_linear_3066_10234" x1="221" y1="118.665" x2="228.547" y2="306.592" gradientUnits="userSpaceOnUse">
<stop stop-color="#04DCB4"/>
<stop offset="0.106827" stop-color="#62EEBD"/>
<stop offset="0.357696" stop-color="#62EED3"/>
<stop offset="1" stop-color="#7789C7"/>
</linearGradient>
<linearGradient id="paint1_linear_3066_10234" x1="138.5" y1="305.165" x2="285" y2="23.165" gradientUnits="userSpaceOnUse">
<stop stop-color="#7789C7"/>
<stop offset="0.512402" stop-color="#62EED3"/>
<stop offset="0.893173" stop-color="#62EEBD"/>
<stop offset="1" stop-color="#04DC7A"/>
</linearGradient>
</defs>
</svg>
